<?xml version="1.0" encoding="UTF-8" standalone="no"?>
<!DOCTYPE svg PUBLIC "-//W3C//DTD SVG 1.1//EN" "http://www.w3.org/Graphics/SVG/1.1/DTD/svg11.dtd">
<svg width="100%" height="100%" viewBox="0 0 908 114" version="1.1" xmlns="http://www.w3.org/2000/svg" xmlns:xlink="http://www.w3.org/1999/xlink" xml:space="preserve" xmlns:serif="http://www.serif.com/" style="fill-rule:evenodd;clip-rule:evenodd;stroke-linejoin:round;stroke-miterlimit:2;">
    <g>
        <g>
            <path d="M793.701,0L680.315,0L680.315,113.386L708.661,113.386L708.661,68.031L793.701,68.031L793.701,45.354L708.661,45.354L708.661,22.677L793.701,22.677L793.701,0Z" style="fill:url(#_Linear1);fill-rule:nonzero;"/>
            <path d="M680.315,113.386L657.638,113.386L623.622,45.458L589.606,113.386L566.929,113.386L623.622,0L680.315,113.386Z" style="fill:url(#_Linear2);fill-rule:nonzero;"/>
            <path d="M538.583,113.386L566.929,113.386L537.267,67.752C555.059,65.456 568.01,49.737 566.859,31.834C565.709,13.932 550.853,0 532.913,0L453.543,0L453.543,22.677L532.913,22.677C539.176,22.677 544.252,27.754 544.252,34.016C544.252,40.278 539.176,45.354 532.913,45.354L453.543,45.354L453.543,113.386L481.89,113.386L481.89,68.031L509.129,68.031L538.583,113.386Z" style="fill:url(#_Linear3);fill-rule:nonzero;"/>
            <path d="M426.309,39.685L445.948,28.346C432.192,4.52 403.314,-5.991 377.46,3.419C351.607,12.829 336.241,39.443 341.019,66.538C345.796,93.632 369.338,113.386 396.85,113.386L396.933,113.386C417.158,113.356 435.835,102.555 445.948,85.039L426.309,73.701C418.611,87.034 402.918,93.534 388.046,89.55C373.175,85.565 362.835,72.089 362.835,56.693C362.835,41.297 373.175,27.821 388.046,23.836C402.918,19.852 418.611,26.352 426.309,39.685Z" style="fill:url(#_Linear4);fill-rule:nonzero;"/>
            <path d="M226.772,34.016C226.772,52.802 242.001,68.031 260.787,68.031L306.142,68.031C312.404,68.031 317.48,73.108 317.48,79.37C317.48,85.632 312.404,90.709 306.142,90.709L226.772,90.709L226.772,113.386L306.142,113.386C317.184,113.386 327.54,108.025 333.915,99.009C340.291,89.993 341.893,78.443 338.212,68.031C333.407,54.441 320.557,45.354 306.142,45.354L260.787,45.354C254.525,45.354 249.449,40.278 249.449,34.016C249.449,27.754 254.525,22.677 260.787,22.677L340.157,22.677L340.157,0L260.787,0C242.001,0 226.772,15.229 226.772,34.016Z" style="fill:url(#_Linear5);fill-rule:nonzero;"/>
            <path d="M226.772,56.693L226.772,0L204.094,0L204.094,56.693C204.094,75.479 188.865,90.709 170.079,90.709C151.292,90.709 136.063,75.479 136.063,56.693L136.063,0L113.386,0L113.386,56.693C113.386,88.004 138.768,113.386 170.079,113.386C201.389,113.386 226.772,88.004 226.772,56.693Z" style="fill:url(#_Linear6);fill-rule:nonzero;"/>
            <path d="M907.087,0L907.087,22.677L861.732,22.677L861.732,113.386L839.055,113.386L839.055,22.677L793.701,22.677L793.701,0L907.087,0Z" style="fill:url(#_Linear7);fill-rule:nonzero;"/>
            <path d="M113.386,34.016C113.386,15.229 98.156,0 79.37,0L0,0L0,22.677L79.37,22.677C85.632,22.677 90.709,27.754 90.709,34.016C90.709,40.278 85.632,45.354 79.37,45.354L0,45.354L0,113.386L79.37,113.386C92.784,113.386 104.946,105.502 110.422,93.257C115.898,81.012 113.667,66.691 104.724,56.693C110.302,50.456 113.386,42.383 113.386,34.016ZM79.37,68.031C85.632,68.031 90.709,73.108 90.709,79.37C90.709,85.632 85.632,90.709 79.37,90.709L22.677,90.709L22.677,68.031L79.37,68.031Z" style="fill:url(#_Linear8);"/>
        </g>
    </g>
    <defs>
        <linearGradient id="_Linear1" x1="0" y1="0" x2="1" y2="0" gradientUnits="userSpaceOnUse" gradientTransform="matrix(907.087,0,0,113.393,0,56.6893)"><stop offset="0" style="stop-color:rgb(13,112,197);stop-opacity:1"/><stop offset="1" style="stop-color:rgb(166,255,0);stop-opacity:1"/></linearGradient>
        <linearGradient id="_Linear2" x1="0" y1="0" x2="1" y2="0" gradientUnits="userSpaceOnUse" gradientTransform="matrix(907.087,0,0,113.393,0,56.6893)"><stop offset="0" style="stop-color:rgb(13,112,197);stop-opacity:1"/><stop offset="1" style="stop-color:rgb(166,255,0);stop-opacity:1"/></linearGradient>
        <linearGradient id="_Linear3" x1="0" y1="0" x2="1" y2="0" gradientUnits="userSpaceOnUse" gradientTransform="matrix(907.087,0,0,113.393,0,56.6893)"><stop offset="0" style="stop-color:rgb(13,112,197);stop-opacity:1"/><stop offset="1" style="stop-color:rgb(166,255,0);stop-opacity:1"/></linearGradient>
        <linearGradient id="_Linear4" x1="0" y1="0" x2="1" y2="0" gradientUnits="userSpaceOnUse" gradientTransform="matrix(907.087,0,0,113.393,0,56.6893)"><stop offset="0" style="stop-color:rgb(13,112,197);stop-opacity:1"/><stop offset="1" style="stop-color:rgb(166,255,0);stop-opacity:1"/></linearGradient>
        <linearGradient id="_Linear5" x1="0" y1="0" x2="1" y2="0" gradientUnits="userSpaceOnUse" gradientTransform="matrix(907.087,0,0,113.393,0,56.6893)"><stop offset="0" style="stop-color:rgb(13,112,197);stop-opacity:1"/><stop offset="1" style="stop-color:rgb(166,255,0);stop-opacity:1"/></linearGradient>
        <linearGradient id="_Linear6" x1="0" y1="0" x2="1" y2="0" gradientUnits="userSpaceOnUse" gradientTransform="matrix(907.087,0,0,113.393,0,56.6893)"><stop offset="0" style="stop-color:rgb(13,112,197);stop-opacity:1"/><stop offset="1" style="stop-color:rgb(166,255,0);stop-opacity:1"/></linearGradient>
        <linearGradient id="_Linear7" x1="0" y1="0" x2="1" y2="0" gradientUnits="userSpaceOnUse" gradientTransform="matrix(907.087,0,0,113.393,0,56.6893)"><stop offset="0" style="stop-color:rgb(13,112,197);stop-opacity:1"/><stop offset="1" style="stop-color:rgb(166,255,0);stop-opacity:1"/></linearGradient>
        <linearGradient id="_Linear8" x1="0" y1="0" x2="1" y2="0" gradientUnits="userSpaceOnUse" gradientTransform="matrix(907.087,0,0,113.393,0,56.6893)"><stop offset="0" style="stop-color:rgb(13,112,197);stop-opacity:1"/><stop offset="1" style="stop-color:rgb(166,255,0);stop-opacity:1"/></linearGradient>
    </defs>
</svg>
