<?xml version="1.0" encoding="UTF-8" standalone="no"?>
<!-- Generator: Gravit.io -->
<svg xmlns="http://www.w3.org/2000/svg" xmlns:xlink="http://www.w3.org/1999/xlink" style="isolation:isolate" viewBox="0 0 1400 160" width="1400pt" height="160pt"><defs><clipPath id="_clipPath_8qUPijvMUm4fXVreiDEn9ZR03UIY8Wd6"><rect width="1400" height="160"/></clipPath></defs><g clip-path="url(#_clipPath_8qUPijvMUm4fXVreiDEn9ZR03UIY8Wd6)"><g><g><linearGradient id="_lgradient_0" x1="0" y1="0.5066666666666664" x2="9.98272413817822" y2="0.5066666666666664" gradientTransform="matrix(139.501,0,0,150,3.7,4)" gradientUnits="userSpaceOnUse"><stop offset="0%" stop-opacity="1" style="stop-color:rgb(13,112,197)"/><stop offset="28.000000000000004%" stop-opacity="1" style="stop-color:rgb(34,137,178)"/><stop offset="55.00000000000001%" stop-opacity="1" style="stop-color:rgb(101,215,118)"/><stop offset="100%" stop-opacity="1" style="stop-color:rgb(177,255,15)"/></linearGradient><path d=" M 3.7 37.15 L 90.251 37.15 C 97.301 37.15 103.001 42.85 103.001 49.75 C 103.001 56.65 97.301 62.5 90.251 62.5 L 3.7 62.5 L 3.7 37.15 L 3.7 37.15 Z  M 128.651 74.8 C 131.051 71.05 133.001 66.85 134.201 62.5 C 135.401 58.45 136.151 54.25 136.151 49.75 C 136.151 24.55 115.45 4 90.251 4 L 3.7 4 L 3.7 154 L 97.451 154 C 122.65 154 143.201 133.45 143.201 108.25 C 143.201 103.9 142.601 99.55 141.401 95.5 C 139.601 89.5 136.601 83.8 132.551 79 C 131.351 77.5 130.001 76.15 128.651 74.8 Z  M 36.851 95.5 L 97.451 95.5 C 104.35 95.5 110.201 101.35 110.201 108.25 C 110.201 115.15 104.35 120.85 97.451 120.85 L 36.851 120.85 L 36.851 95.5 L 36.851 95.5 Z " fill="url(#_lgradient_0)"/><linearGradient id="_lgradient_1" x1="-1.3785310734463274" y1="0.4933333333333332" x2="9.11186440677966" y2="0.4933333333333332" gradientTransform="matrix(132.75,0,0,150,186.7,6)" gradientUnits="userSpaceOnUse"><stop offset="0%" stop-opacity="1" style="stop-color:rgb(13,112,197)"/><stop offset="28.000000000000004%" stop-opacity="1" style="stop-color:rgb(34,137,178)"/><stop offset="55.00000000000001%" stop-opacity="1" style="stop-color:rgb(101,215,118)"/><stop offset="100%" stop-opacity="1" style="stop-color:rgb(177,255,15)"/></linearGradient><path d=" M 286.45 147 C 306.25 135.45 319.45 114 319.45 89.55 L 319.45 6 L 286.45 6 L 286.45 89.55 C 286.45 107.85 271.3 122.85 253.15 122.85 C 234.85 122.85 219.7 107.85 219.7 89.55 L 219.7 6 L 186.7 6 L 186.7 89.55 C 186.7 114 200.05 135.45 219.7 147 C 229.6 152.7 241 156 253.15 156 C 265.15 156 276.55 152.7 286.45 147 Z " fill="url(#_lgradient_1)"/><linearGradient id="_lgradient_2" x1="-2.5752688172042992" y1="0.4933333333333332" x2="7.407526881720426" y2="0.4933333333333332" gradientTransform="matrix(139.5,0,0,150,362.95,6)" gradientUnits="userSpaceOnUse"><stop offset="0%" stop-opacity="1" style="stop-color:rgb(13,112,197)"/><stop offset="28.000000000000004%" stop-opacity="1" style="stop-color:rgb(34,137,178)"/><stop offset="55.00000000000001%" stop-opacity="1" style="stop-color:rgb(101,215,118)"/><stop offset="100%" stop-opacity="1" style="stop-color:rgb(177,255,15)"/></linearGradient><path d=" M 364.9 122.85 L 365 156 L 456.7 156 C 481.9 156 502.45 135.45 502.45 110.25 C 502.45 105.9 501.85 101.55 500.65 97.5 C 498.85 91.5 495.85 85.8 491.95 81 C 483.55 70.95 470.8 64.5 456.7 64.5 L 408.7 64.5 C 401.8 64.5 396.1 58.8 396.1 51.75 C 396.1 44.85 401.8 39.15 408.7 39.15 L 502.45 39.15 L 502.45 6 L 408.7 6 C 404.35 6 400.15 6.6 396.1 7.8 C 377.05 13.35 362.95 31.05 362.95 51.75 C 362.95 56.25 363.7 60.45 364.9 64.5 C 366.55 70.65 369.7 76.2 373.6 81 C 379.45 87.9 387.25 93.15 396.1 95.7 C 400.15 96.9 404.35 97.5 408.7 97.5 L 456.7 97.5 C 463.75 97.5 469.45 103.2 469.45 110.25 C 469.45 117.15 463.75 122.85 456.7 122.85 L 364.9 122.85 L 364.9 122.85 Z " fill="url(#_lgradient_2)"/><linearGradient id="_lgradient_3" x1="-3.808429009687454" y1="0.4933333333333332" x2="6.1039497191990995" y2="0.4933333333333332" gradientTransform="matrix(140.491,0,0,150,538.75,6)" gradientUnits="userSpaceOnUse"><stop offset="0%" stop-opacity="1" style="stop-color:rgb(13,112,197)"/><stop offset="28.000000000000004%" stop-opacity="1" style="stop-color:rgb(34,137,178)"/><stop offset="55.00000000000001%" stop-opacity="1" style="stop-color:rgb(101,215,118)"/><stop offset="100%" stop-opacity="1" style="stop-color:rgb(177,255,15)"/></linearGradient><path d=" M 648.679 100.496 L 679.241 117.555 C 666.405 140.485 641.875 156 613.75 156 C 572.357 156 538.75 122.394 538.75 81 C 538.75 39.606 572.357 6 613.75 6 C 641.797 6 666.268 21.428 679.133 44.253 L 648.621 61.402 C 641.76 49.228 628.708 41 613.75 41 C 591.673 41 573.75 58.923 573.75 81 C 573.75 103.077 591.673 121 613.75 121 C 628.468 121 640.111 114.165 648.679 100.496 Z " fill="url(#_lgradient_3)"/><linearGradient id="_lgradient_4" x1="-9.011111111111111" y1="0.4933333333333332" x2="2.450617283950617" y2="0.4933333333333332" gradientTransform="matrix(121.5,0,0,150,1098.55,6)" gradientUnits="userSpaceOnUse"><stop offset="0%" stop-opacity="1" style="stop-color:rgb(13,112,197)"/><stop offset="28.000000000000004%" stop-opacity="1" style="stop-color:rgb(34,137,178)"/><stop offset="55.00000000000001%" stop-opacity="1" style="stop-color:rgb(101,215,118)"/><stop offset="100%" stop-opacity="1" style="stop-color:rgb(177,255,15)"/></linearGradient><path d=" M 1131.7 97.5 L 1220.05 97.5 L 1220.05 64.5 L 1098.55 64.5 L 1098.55 39.15 L 1220.05 39.15 L 1220.05 6 L 1098.55 6 L 1098.55 156 L 1131.7 156 L 1131.7 97.5 L 1131.7 97.5 Z " fill="url(#_lgradient_4)"/><linearGradient id="_lgradient_5" x1="-9.490395480225988" y1="0.4933333333333332" x2="0.9999999999999982" y2="0.4933333333333332" gradientTransform="matrix(132.75,0,0,150,1263.55,6)" gradientUnits="userSpaceOnUse"><stop offset="0%" stop-opacity="1" style="stop-color:rgb(13,112,197)"/><stop offset="28.000000000000004%" stop-opacity="1" style="stop-color:rgb(34,137,178)"/><stop offset="55.00000000000001%" stop-opacity="1" style="stop-color:rgb(101,215,118)"/><stop offset="100%" stop-opacity="1" style="stop-color:rgb(177,255,15)"/></linearGradient><path d=" M 1313.35 39.15 L 1313.35 156 L 1346.5 156 L 1346.5 39.15 L 1396.3 39.15 L 1396.3 6 L 1263.55 6 L 1263.55 39.15 L 1313.35 39.15 L 1313.35 39.15 Z " fill="url(#_lgradient_5)"/><linearGradient id="_lgradient_6" x1="-5.732949087415948" y1="0.4933333333333332" x2="3.1853986551392914" y2="0.4933333333333332" gradientTransform="matrix(156.15,0,0,150,898.9,6)" gradientUnits="userSpaceOnUse"><stop offset="0%" stop-opacity="1" style="stop-color:rgb(13,112,197)"/><stop offset="28.000000000000004%" stop-opacity="1" style="stop-color:rgb(34,137,178)"/><stop offset="55.00000000000001%" stop-opacity="1" style="stop-color:rgb(101,215,118)"/><stop offset="100%" stop-opacity="1" style="stop-color:rgb(177,255,15)"/></linearGradient><path d=" M 1017.7 156 L 936.25 156 L 976.9 77.7 L 1017.7 156 L 1017.7 156 Z  M 898.9 156 L 1055.05 156 L 1049.65 145.65 L 1046.65 140.1 L 1032.4 112.5 L 995.5 41.85 L 976.9 6 L 958.3 41.85 L 921.55 112.5 L 907.15 140.1 L 904.3 145.65 L 898.9 156 L 898.9 156 Z " fill="url(#_lgradient_6)"/><linearGradient id="_lgradient_7" x1="-5.358350130645769" y1="0.5066666666666668" x2="5.038066442702504" y2="0.5066666666666668" gradientTransform="matrix(133.95,0,0,150,721.451,4)" gradientUnits="userSpaceOnUse"><stop offset="0%" stop-opacity="1" style="stop-color:rgb(13,112,197)"/><stop offset="28.000000000000004%" stop-opacity="1" style="stop-color:rgb(34,137,178)"/><stop offset="55.00000000000001%" stop-opacity="1" style="stop-color:rgb(101,215,118)"/><stop offset="100%" stop-opacity="1" style="stop-color:rgb(177,255,15)"/></linearGradient><path d=" M 721.451 4 L 721.451 154 L 754.601 154 L 754.601 37.15 L 805.601 37.15 C 814.751 37.15 822.401 44.65 822.401 53.8 C 822.401 62.95 814.751 70.6 805.601 70.6 L 751 70.6 L 751 103.75 L 781.001 103.75 L 815.351 154 L 855.401 154 L 819.701 101.65 C 840.251 95.65 855.401 76.45 855.401 53.8 C 855.401 26.5 833.051 4 805.601 4 L 721.451 4 L 721.451 4 Z " fill="url(#_lgradient_7)"/></g></g></g></svg>