<?xml version="1.0" encoding="UTF-8" standalone="no"?>
<!DOCTYPE svg PUBLIC "-//W3C//DTD SVG 1.1//EN" "http://www.w3.org/Graphics/SVG/1.1/DTD/svg11.dtd">
<svg width="100%" height="100%" viewBox="0 0 908 114" version="1.1" xmlns="http://www.w3.org/2000/svg" xmlns:xlink="http://www.w3.org/1999/xlink" xml:space="preserve" xmlns:serif="http://www.serif.com/" style="fill-rule:evenodd;clip-rule:evenodd;stroke-linejoin:round;stroke-miterlimit:2;">
    <g>
        <g transform="matrix(1,0,0,-1,-107.246,-3.61417)">
            <path d="M220.632,-3.614L220.632,-60.307C220.632,-91.408 246.224,-117 277.325,-117C308.425,-117 334.018,-91.408 334.018,-60.307L334.018,-3.614L311.34,-3.614L311.34,-60.307C311.34,-78.968 295.985,-94.323 277.325,-94.323C258.664,-94.323 243.309,-78.968 243.309,-60.307L243.309,-3.614L220.632,-3.614Z" style="fill:url(#_Linear1);fill-rule:nonzero;"/>
        </g>
        <g transform="matrix(1,0,0,-1,-107.246,-3.61417)">
            <path d="M334.018,-37.63C334.018,-56.29 349.373,-71.646 368.033,-71.646L413.388,-71.646C419.608,-71.646 424.726,-76.764 424.726,-82.984C424.726,-89.204 419.608,-94.323 413.388,-94.323L334.018,-94.323L334.018,-117L413.388,-117C432.048,-117 447.403,-101.645 447.403,-82.984C447.403,-79.122 446.745,-75.287 445.458,-71.646C440.664,-58.088 427.768,-48.969 413.388,-48.969L368.033,-48.969C361.813,-48.969 356.695,-43.85 356.695,-37.63C356.695,-31.41 361.813,-26.291 368.033,-26.291L447.403,-26.291L447.403,-3.614L368.033,-3.614C349.373,-3.614 334.018,-18.969 334.018,-37.63Z" style="fill:url(#_Linear2);fill-rule:nonzero;"/>
        </g>
        <g transform="matrix(1,0,0,-1,-107.246,-3.61417)">
            <path d="M533.555,-43.299L553.194,-31.961C537.643,-5.027 502.684,4.341 475.75,-11.21C448.816,-26.76 439.448,-61.719 454.999,-88.654C465.113,-106.173 483.867,-117 504.096,-117L504.179,-117C524.379,-116.971 543.094,-106.147 553.194,-88.654L533.555,-77.315C524.225,-93.475 503.249,-99.096 487.088,-89.766C470.928,-80.435 465.308,-59.46 474.638,-43.299C483.968,-27.139 504.944,-21.518 521.104,-30.849C526.275,-33.834 530.569,-38.129 533.555,-43.299Z" style="fill:url(#_Linear3);fill-rule:nonzero;"/>
        </g>
        <g transform="matrix(1,0,0,-1,-107.246,-3.61417)">
            <path d="M645.829,-117L674.175,-117L644.513,-71.366C663.02,-68.978 676.284,-51.783 673.895,-33.276C671.716,-16.393 657.182,-3.614 640.159,-3.614L560.789,-3.614L560.789,-26.291L640.159,-26.291C646.379,-26.291 651.498,-31.41 651.498,-37.63C651.498,-43.85 646.379,-48.969 640.159,-48.969L560.789,-48.969L560.789,-117L589.136,-117L589.136,-71.646L616.375,-71.646L645.829,-117Z" style="fill:url(#_Linear4);fill-rule:nonzero;"/>
        </g>
        <g transform="matrix(1,0,0,-1,-107.246,-3.61417)">
            <path d="M762.234,-117L730.868,-54.364L699.502,-117L674.175,-117L730.868,-3.614L787.561,-117L762.234,-117Z" style="fill:url(#_Linear5);fill-rule:nonzero;"/>
        </g>
        <g transform="matrix(1,0,0,-1,-107.246,-3.61417)">
            <path d="M1014.33,-3.614L787.561,-3.614L787.561,-117L815.907,-117L815.907,-71.646L900.947,-71.646L900.947,-48.969L815.907,-48.969L815.907,-26.291L946.301,-26.291L946.301,-117L968.978,-117L968.978,-26.291L1014.33,-26.291L1014.33,-3.614Z" style="fill:url(#_Linear6);fill-rule:nonzero;"/>
        </g>
        <path d="M-0,113.386L79.37,113.386C98.031,113.386 113.386,98.031 113.386,79.37C113.386,71.005 110.3,62.928 104.724,56.693C110.3,50.458 113.386,42.38 113.386,34.016C113.386,15.355 98.031,0 79.37,0L-0,0L-0,22.677L79.37,22.677C85.59,22.677 90.709,27.796 90.709,34.016C90.709,40.236 85.59,45.354 79.37,45.354L-0,45.354L-0,113.386ZM79.37,68.031C85.59,68.031 90.709,73.15 90.709,79.37C90.709,85.59 85.59,90.709 79.37,90.709L22.677,90.709L22.677,68.031L79.37,68.031Z" style="fill:url(#_Linear7);fill-rule:nonzero;"/>
    </g>
    <defs>
        <linearGradient id="_Linear1" x1="0" y1="0" x2="1" y2="0" gradientUnits="userSpaceOnUse" gradientTransform="matrix(907.087,0,0,113.386,-5.68434e-14,56.6929)"><stop offset="0" style="stop-color:rgb(13,112,197);stop-opacity:1"/><stop offset="0.54" style="stop-color:rgb(47,143,154);stop-opacity:1"/><stop offset="1" style="stop-color:rgb(164,253,2);stop-opacity:1"/></linearGradient>
        <linearGradient id="_Linear2" x1="0" y1="0" x2="1" y2="0" gradientUnits="userSpaceOnUse" gradientTransform="matrix(907.087,0,0,113.386,-5.68434e-14,56.6929)"><stop offset="0" style="stop-color:rgb(13,112,197);stop-opacity:1"/><stop offset="0.54" style="stop-color:rgb(47,143,154);stop-opacity:1"/><stop offset="1" style="stop-color:rgb(164,253,2);stop-opacity:1"/></linearGradient>
        <linearGradient id="_Linear3" x1="0" y1="0" x2="1" y2="0" gradientUnits="userSpaceOnUse" gradientTransform="matrix(907.087,0,0,113.386,-5.68434e-14,56.6929)"><stop offset="0" style="stop-color:rgb(13,112,197);stop-opacity:1"/><stop offset="0.54" style="stop-color:rgb(47,143,154);stop-opacity:1"/><stop offset="1" style="stop-color:rgb(164,253,2);stop-opacity:1"/></linearGradient>
        <linearGradient id="_Linear4" x1="0" y1="0" x2="1" y2="0" gradientUnits="userSpaceOnUse" gradientTransform="matrix(907.087,0,0,113.386,-5.68434e-14,56.6929)"><stop offset="0" style="stop-color:rgb(13,112,197);stop-opacity:1"/><stop offset="0.54" style="stop-color:rgb(47,143,154);stop-opacity:1"/><stop offset="1" style="stop-color:rgb(164,253,2);stop-opacity:1"/></linearGradient>
        <linearGradient id="_Linear5" x1="0" y1="0" x2="1" y2="0" gradientUnits="userSpaceOnUse" gradientTransform="matrix(907.087,0,0,113.386,-5.68434e-14,56.6929)"><stop offset="0" style="stop-color:rgb(13,112,197);stop-opacity:1"/><stop offset="0.54" style="stop-color:rgb(47,143,154);stop-opacity:1"/><stop offset="1" style="stop-color:rgb(164,253,2);stop-opacity:1"/></linearGradient>
        <linearGradient id="_Linear6" x1="0" y1="0" x2="1" y2="0" gradientUnits="userSpaceOnUse" gradientTransform="matrix(907.087,0,0,113.386,-5.68434e-14,56.6929)"><stop offset="0" style="stop-color:rgb(13,112,197);stop-opacity:1"/><stop offset="0.54" style="stop-color:rgb(47,143,154);stop-opacity:1"/><stop offset="1" style="stop-color:rgb(164,253,2);stop-opacity:1"/></linearGradient>
        <linearGradient id="_Linear7" x1="0" y1="0" x2="1" y2="0" gradientUnits="userSpaceOnUse" gradientTransform="matrix(907.087,0,0,113.386,-5.68434e-14,56.6929)"><stop offset="0" style="stop-color:rgb(13,112,197);stop-opacity:1"/><stop offset="0.54" style="stop-color:rgb(47,143,154);stop-opacity:1"/><stop offset="1" style="stop-color:rgb(164,253,2);stop-opacity:1"/></linearGradient>
    </defs>
</svg>
